<svg width="428" height="428" viewBox="0 0 428 428" fill="none" xmlns="http://www.w3.org/2000/svg">
<path d="M80.1914 0.875C36.7422 0.875 0.875 36.7422 0.875 80.1914V347.809C0.875 391.258 36.7422 427.125 80.1914 427.125H347.809C391.258 427.125 427.125 391.258 427.125 347.809V80.1914C427.125 36.7422 391.258 0.875 347.809 0.875H80.1914ZM80.1914 39.625H347.809C370.312 39.625 388.375 57.6881 388.375 80.1914V347.809C388.375 370.312 370.312 388.375 347.809 388.375H80.1914C57.6881 388.375 39.625 370.312 39.625 347.809V80.1914C39.625 57.6881 57.6881 39.625 80.1914 39.625ZM208.551 140.738C194.33 140.603 182.07 141.019 175.25 144.371C170.716 146.599 167.064 151.346 169.195 151.637C171.83 151.985 178.147 153.39 181.305 157.691C185.393 163.252 184.938 175.855 184.938 175.855C184.938 175.855 187.316 210.324 179.488 214.605C174.121 217.531 166.861 211.065 151.031 183.727C142.913 169.718 137.105 154.664 137.105 154.664C137.105 154.664 135.585 151.37 133.473 149.82C130.915 147.941 127.418 147.398 127.418 147.398L89.8789 148.004C89.8789 148.004 84.0809 147.946 82.0078 150.426C80.1478 152.635 81.4023 157.086 81.4023 157.086C81.4023 157.086 111.38 226.86 144.977 261.832C175.822 293.878 210.973 291.5 210.973 291.5H226.715C226.715 291.5 231.539 291.108 233.98 288.473C236.228 286.051 235.797 281.207 235.797 281.207C235.797 281.207 235.622 260.108 245.484 256.988C255.211 253.908 267.955 277.569 281.207 286.656C291.224 293.534 298.766 292.105 298.766 292.105L333.883 291.5C333.883 291.5 352.347 290.328 343.57 275.758C342.853 274.576 338.751 265.169 317.535 245.484C295.331 224.869 298.044 227.853 324.801 192.203C341.095 170.484 348.027 157.314 345.992 151.637C344.055 146.231 332.066 148.004 332.066 148.004H292.105C292.105 148.004 288.846 147.897 286.656 149.215C284.506 150.494 283.023 153.453 283.023 153.453C283.023 153.453 276.901 170.033 268.492 184.332C250.745 214.48 243.547 215.86 240.641 214C233.879 209.641 235.797 196.698 235.797 187.359C235.797 158.142 240.379 145.713 227.32 142.555C222.98 141.508 219.653 140.855 208.551 140.738Z" fill="black"/>
</svg>
